# xmcd CD database file generated by OrangeCD 5.2
#
# Track frame offsets:
#	150
#	15277
#	28245
#	50310
#	66180
#	84057
#	96270
#	116652
#	131590
#	146907
#	166925
#	183347
#	200425
#	215850
#	231152
#	244607
#
# Disc length: 3457 seconds
#
# Revision: 1
# Processed by: cddbd v1.5.1PL2 Copyright (c) Steve Scherf et al.
# Submitted via: OrangeCD 5.2
#
DISCID=dc0d7f10
DTITLE=Various Artist - Line Dance Spectacular!
DYEAR=1900
DGENRE=Country
TTITLE0=The Dockery Boys - Let's Walk Away In Love
TTITLE1=George Moody and The Country Squires - Hot Country  and Single
TTITLE2=The Dockery Boys - I Ride A Horse
TTITLE3=The Dockery Boys - The Matador
TTITLE4=George Moody and The Country Squires - Dream You
TTITLE5=The Dockery Boys - Devils Right Hand
TTITLE6=George Moody and The Country Squires - Heavenly Bodies
TTITLE7=The Dockery Boys - Fly Like A Bird
TTITLE8=The Dockery Boys - Ridin' Alone
TTITLE9=George Moody and The Country Squires - Carmen
TTITLE10=The Dockery Boys - Johnny O
TTITLE11=George Moody and The Country Squires - Every Second, Every Minute
TTITLE12=The Dockery Boys - Volcano
TTITLE13=George Moody and The Country Squires - Looks Like Love's Got A Hold On Y
TTITLE13=ou
TTITLE14=The Dockery Boys - I Don't Care If You Love Me Anymore
TTITLE15=The Dockery Boys - The Outback Club
EXTD=
EXTT0=
EXTT1=
EXTT2=
EXTT3=
EXTT4=
EXTT5=
EXTT6=
EXTT7=
EXTT8=
EXTT9=
EXTT10=
EXTT11=
EXTT12=
EXTT13=
EXTT14=
EXTT15=
PLAYORDER=
